<svg xmlns="http://www.w3.org/2000/svg" id="Layer_2" data-name="Layer 2" viewBox="0 0 435.05 435.05"><defs><style>      .cls-1 {        fill: none;        stroke: #ed3227;        stroke-miterlimit: 10;        stroke-width: 8px;      }      .cls-2, .cls-3, .cls-4, .cls-5, .cls-6 {        stroke-width: 0px;      }      .cls-3 {        fill: #fff;      }      .cls-4 {        fill: #ed3227;      }      .cls-5 {        fill: #ed3024;      }      .cls-6 {        fill: #020202;      }    </style></defs><g id="Layer_1-2" data-name="Layer 1"><g><circle class="cls-2" cx="217.52" cy="217.52" r="201.88"></circle><circle class="cls-3" cx="217.52" cy="217.52" r="116.91"></circle><g><path class="cls-5" d="m207.16,277.41c2.7,1.56,4.81,3.85,7.16,5.83,1.37,1.16,2.22,1,3.5-.03,7.17-5.81,13.63-12.34,19.49-19.45,11.71-14.22,21.07-29.87,28.05-46.93,3.76-9.17,6.73-18.58,8.49-28.34.38-2.13,1.09-2.03,2.67-1.31,1.6.73,2.48,1.35,2.08,3.53-4.81,25.96-15.85,49.07-31.76,69.98-7.33,9.63-15.63,18.33-25.27,25.68-1.02.78-1.34,1.3-.05,2.17,6.93,4.64,14.37,8.12,22.57,9.77,12.66,2.55,22.49-3.3,27.73-14.46,3.96-8.42,4.1-17.33,3.54-26.33-.27-4.4-.39-3.92-5.61-2.25-.73.23-1.45.51-2.18.78-.74.27-1.37.28-1.88-.42,0,0-.03.03-.03.03,2.92-.37,5.48-1.78,8.2-2.73,1.31-.46.84-1.47.71-2.34-1.06-7.04-2.72-13.95-5.05-20.67-.66-1.9-.66-3.49.3-5.23.74-1.33,1.2-2.8,1.98-4.66,1.71,3.81,2.69,7.41,3.7,10.98,1.64,5.8,2.94,11.67,3.7,17.66.13,1.01.16,1.89,1.62,1.13,8.22-4.3,15.89-9.28,21.3-17.05,7.29-10.47,6.56-21.84-1.89-31.43-5.96-6.76-13.5-11.22-21.61-14.83-7.72-3.44-15.77-5.89-24.04-7.57-2.23-.45-3.8-1.36-4.96-3.27-.75-1.23-1.74-2.32-2.9-3.84,4.66.7,8.81,1.68,12.93,2.8,11.4,3.08,22.31,7.29,32.1,14.05,4.8,3.32,9.12,7.15,12.52,11.93,8.33,11.69,7.54,24.68-2.04,35.39-5.71,6.39-12.76,10.88-20.44,14.45-1.68.78-2.25,1.63-2.08,3.48.76,8.21.42,16.37-1.89,24.34-1.78,6.16-4.45,11.87-9.4,16.21-7.92,6.95-17.09,7.99-26.95,5.56-7.64-1.89-14.22-5.92-20.49-10.48-1.46-1.06-2.38-.99-3.8,0-7.74,5.37-16.01,9.63-25.39,11.36-15.43,2.84-27.8-4.56-32.62-19.48-2.71-8.4-2.99-17.01-2.05-25.67.28-2.58-.21-3.89-2.79-4.97-9.43-3.93-17.39-9.86-23.52-18.17-7.17-9.72-7.77-19.34-1.47-29.7,5.1-8.39,12.75-13.95,21.16-18.61,2.15-1.2,5.26-1.76,6.31-3.56,1.05-1.79.05-4.77-.04-7.23-.22-5.82.19-11.59,1.7-17.23,4.96-18.44,20.62-26.79,38.95-20.88,7.36,2.37,14.02,6.06,20.23,10.59,1.25.91,1.96.88,3.15.05,4.8-3.36,9.65-6.69,15.22-8.7,4.44-1.6,9.01-2.67,13.76-2.88,9.54-.42,17.21,3.09,22.65,11,7.16,10.43,8,22.21,7.39,34.3-.38.03-.46.07-.52.04-3.9-1.46-3.92-1.46-3.8-5.64.2-6.92-.22-13.76-2.62-20.33-4.8-13.14-15.29-19.07-29.05-16.59-8.06,1.45-15.23,4.91-22.07,9.23-1.29.82-1.58,1.35-.18,2.46,19.35,15.39,33.73,34.66,44.39,56.85.77,1.6.93,2.98.2,4.58-.7,1.54-1.24,3.14-2,5.12-1.17-2.52-2.12-4.68-3.16-6.81-10.02-20.56-23-38.93-40.23-54.14-.23-.2-.45-.43-.69-.62-1.21-.96-2.67-2.57-4.05-3.1-1.41.15-5.97,5.53-9.04,7.48,0,0,1.88-2.47,7.77-8.03.13-.12.13-.32.01-.44-.84-.91-2.47-1.88-3.69-2.7-5.66-3.81-11.64-7.02-18.31-8.7-16.07-4.04-28.17,3.02-32.65,18.98-1.96,6.99-2.41,14.11-2.05,21.33.08,1.55.58,1.6,1.83,1.1,21.58-8.73,44.1-11.4,67.19-10.35,1.85.08,3.69.28,5.54.42.71.05,1.37.17,1.86.77,1.35,1.65,2.71,3.3,4.48,5.45-4.1-.29-7.57-.56-11.04-.79-12.53-.82-25-.17-37.41,1.69-10.33,1.54-20.42,4.08-30.2,7.79-1.36.51-1.74,1.13-1.42,2.48.83,3.5.73,7.21,2.41,10.5,0,.41.03.85-.57.88-1.4-3.54-1.91-7.3-2.56-11.01-.25-1.42-.71-1.72-1.95-1.09-1.86.94-3.77,1.78-5.61,2.77-7.15,3.83-13.75,8.4-18.31,15.28-5.2,7.83-6.26,16.16-1.26,24.42,5.9,9.75,14.44,16.67,24.73,21.48,1.37.64,1.78.43,2.04-1.12.69-4.14,1.39-8.29,2.81-12.27-.54,4.24-.98,8.52-2.09,12.62-.48,1.8.03,2.11,1.31,2.59,3.35,1.26,6.68,2.56,10.02,3.85-3.34-.7-6.55-1.76-9.73-2.91-1.2-.43-1.85-.41-1.95,1.12-.56,8.62-.3,17.16,2.55,25.41,5.09,14.74,16.61,20.88,31.77,17.02,7.68-1.96,14.4-5.84,20.86-10.3,1.76-1.21,1.36-1.87,0-3.01-2.23-1.87-4.59-3.65-6.29-6.09l.03-.03Z"></path><path class="cls-2" d="m207.16,277.41s-.03.03-.03.03c-.58-.79-1.54-.62-2.31-.8-15.68-3.53-27.58-12.44-36.85-25.35-3.75-5.23-5.33-11.2-7.03-17.17-.37-1.3-1.44-2.12-1.7-3.46-1.13-5.86-1.67-11.73-1.19-17.71.4-4.87,1.69-9.53,2.74-14.26.6-.03.56-.47.57-.88,1.5-4.15,3.49-8.05,5.74-11.84,1.14-1.92,2.7-2.83,5.12-3.01-3.14,4.48-5.6,9.06-7.05,14.13-2.02,7.07-2.02,14.16-.39,21.3.29,1.26.91,1.8,2.15,1.94,2.38.27,4.76.58,7.11.99,2.39.42,4.62.42,6.42-1.75-1.3,3.35-.38,6.29,1,9.25,2.42,5.18,4.86,10.33,7.65,15.32,1.05,1.88,2.53,3.05,4.59,3.57,3.52.89,7.02,1.82,10.91,2.83-4.41.3-8.37-.48-12.32-1.11-1.97-.32-3.41.06-4.73,1.56-1.77,2.01-3.94,3.66-5.25,6.06-.22.03-.4.13-.24.36.05.06.33-.05.51-.09.14-.06.32-.07.43-.17,4.85-4.41,10.26-4.11,16.51-3.44,7.87.84,14.22,4.03,20.45,8.27,1.78,1.21,3.62,2.47,6.01,2.67-2.08-1.92-4.14-3.84-6.23-5.74-2.23-2.03-4.34-4.17-6.26-6.51-.42-.51-.91-.87-.12-1.7,4.95-5.22,9.1-11.09,13.25-16.94.86-1.21,1.47-1.69,3.08-1.38,6.45,1.23,13,1.71,19.56,2.09,2.66.15,4.16-1.14,5.56-2.99.73-.96,1.5-1.89,2.31-2.91.8,1.08.03,1.68-.28,2.27-5.35,10.31-11.6,20.03-18.78,29.16-4.74,6.02-9.91,11.63-15.53,16.84-1.09,1.01-2.22,1.44-3.71,1.49-3.94.12-7.78-.76-11.68-.94Zm14.59-20.58c0-.55.05-.77,0-.97-1.05-3.78-.83-4.11,2.86-5.23,5.55-1.67,10.98-3.67,16.17-6.25,3.55-1.77,6.97-3.77,10.48-6.45-7.43-.79-14.38-1.52-21.33-2.26-.86-.09-1.23.53-1.66,1.07-3.65,4.59-7.29,9.19-10.94,13.78-.46.58-.88,1.03-.14,1.74,1.49,1.42,2.91,2.91,4.56,4.57Zm-36.77-12.43c-1.17-2.45-2.08-4.31-2.96-6.18-.88-1.88-1.72-3.78-2.57-5.68-1.1-2.45-1.57-5.7-3.44-7.13-1.97-1.5-5.27-1.26-7.99-1.78-.38-.07-.76-.14-1.14-.21-.52-.1-.98.06-1.09.58-.3,1.49-1.28,2.85-1.03,4.98,1.86-2.56,2.79-1.43,3.72.31.65,1.22,1.46,2.36,2.3,3.46,3.67,4.82,7.96,8.92,14.19,11.65Zm-.6,19.18c.16-.14.32-.28.47-.41-5.33-6.04-10.67-12.08-16-18.12l-.46.4c3.48,7.66,8.4,14.06,15.99,18.13Zm-23.73-54.23c-.86,6.21-.45,12.37.82,18.52.63-1.9,1.9-3.74,1.35-5.72-1.18-4.2-1.58-8.49-2.16-12.8Zm3.99,19.61c-.05-.06-.1-.11-.14-.15-.05.09-.11.19-.13.29,0,.04.08.09.12.14.05-.09.1-.18.15-.27Z"></path><path class="cls-2" d="m222.38,196.95c1.69-2.39,3.33-4.82,5.1-7.14.76-1,.49-1.55-.29-2.3-3.54-3.43-7.03-6.91-10.82-10.65,3.01-.41,5.25-.38,7.19,1.98,2.34,2.86,5.02,5.46,7.68,8.04,1.34,1.3,1.32,2.36.31,3.8-3.27,4.68-6.39,9.47-9.73,14.09-1.74,2.41-2.24,4.64-.99,7.49,1.39,3.15,2.28,6.51,2.89,10.01-1.13-2.19-2.26-4.38-3.4-6.56-3.27-6.24-3.26-6.28-10.18-7.76-4.68-1-9.4-1.84-14.08-2.82-1.42-.3-2.52,0-3.58.99-1.94,1.81-3.98,3.52-6.29,4.95.69-1.01,1.28-2.11,2.1-3,3.5-3.84,4.29-8.27,3.33-13.27-.51-2.64-.7-5.37-.77-8.06-.06-2.18-1.17-3.21-3.06-3.74-1.31-.37-2.62-.74-3.89-1.46.41,0,.82-.04,1.23,0,3.77.43,7.24.06,10.35-2.59,2.1-1.79,4.97-1.35,8.07-1.73-2.82,1.74-5.19,3.21-7.58,4.66-1.08.66-1.65,1.5-1.52,2.85.43,4.53.84,9.07,1.14,13.62.1,1.52.78,2.02,2.2,2.32,3.91.83,7.93,1.18,11.72,2.56.35.13.98.32,1.1-.36.1-.6-.46-.73-.87-.9-3.14-1.29-6.26-2.64-9.45-3.8-1.63-.59-1.53-1.39-.79-2.58.66-1.07,1.5-1.97,2.55-2.64,6.01-3.82,12.61-5.35,19.66-4.82,2.95.22,2.98.48,2.01,3.2-.63,1.74-1.2,3.49-1.8,5.24-.14.39-.89.72-.12,1.21-.19-.16-.34-.12-.42.11-.02.05.04.13.07.19.1-.12.2-.24.3-.36.54.02.51-.45.64-.77Zm-6.94,7.21c2.91.91,3.24.68,4.56-2.94-1.56,1-2.92,1.88-4.56,2.94Z"></path><path class="cls-2" d="m246.91,263.19c1.8-2.64,7.11-9.33,7.84-10.41,4.79-7.1,9.06-14.51,12.95-22.73,1.8,5.14,3.02,9.93,4.06,14.76.15.71-.32,1.33-.66,1.93-1.39,2.48-2.63,5.07-4.72,7.09-.51.5-.74,1.12-.72,1.83,0,0,.03-.03.02-.03-2.4,2.45-4.71,5-7.22,7.33-5.89,5.47-12.73,9.39-20.31,12.06-.35.12-.71.32-1.34-.09,3.29-2.79,5.33-6.76,9.51-8.59,2.01-.88,3.88-2.17,5.18-4.07.19-.06.43-.14.25-.38-.05-.06-.35.06-.53.1-1.37.42-2.48,1.5-3.97,1.6l-.35-.38Z"></path><path class="cls-2" d="m268.2,203.79c-1.95-4.44-4.3-8.65-5.3-13.34-.55-2.57-.17-3.02,2.47-3.01-.39-1.43-1.66-1.94-2.66-2.66-.85-.61-1.02.2-1.25.74-.59,1.4-1.16,2.82-1.77,4.31-1.73-2.1-1.67-6-.01-7.53.15-.14.43-.29.57-.24,2.36.95,5.03.81,7.02,3.04,3.71,4.16,4.8,8.48,2.45,13.65-.72,1.58-1.02,3.35-1.52,5.04Z"></path><path class="cls-2" d="m276.81,228.74c-1.16-3.41-2.34-6.81-3.47-10.22-.16-.48-.24-1.1-.09-1.57,1.05-3.19,2.17-6.36,3.46-10.1,1.59,7.66,1.37,14.77.11,21.89Z"></path><path class="cls-2" d="m226.09,162.18c-3.11-.03-4.68,2.06-6.07,4.32-.68,1.1-1.55,1.31-2.9.89.78-1.12,1.41-2.18,2.2-3.11,1.29-1.54,1.12-2.71-.59-3.76-.7-.43-1.29-1.05-2.23-1.83,3.88-.19,7.39-.53,9.6,3.5Z"></path><path class="cls-2" d="m256.68,171.91c-5.05.49-6.69-4.3-10.12-6.13,3.88,1.11,6.97,3.52,10.12,6.13Z"></path><path class="cls-2" d="m189.99,165.47c-3.47,1.71-5.18,6.33-10.01,6,3.01-2.67,6.35-4.59,10.01-6Z"></path><path class="cls-2" d="m172.03,186.69c1.13-4.15,1.44-4.46,5.86-5.23-2.44,1.8-4.19,3.43-5.82,5.17l-.05.06Z"></path><path class="cls-2" d="m249.05,191.39c-2.66-.48-5.33-.97-7.99-1.45l.12-.63c2.58.9,5.54-.14,8.01,1.37-.04.23-.09.47-.13.7Z"></path><path class="cls-6" d="m172.08,186.64l.05.04s-.08,0-.09,0c0,.01.04-.05.04-.05Z"></path><path class="cls-6" d="m182.6,257.35c-.18.03-.46.15-.51.09-.17-.23.01-.33.24-.36.1.08.19.17.27.27Z"></path><path class="cls-6" d="m164.64,228.97c-.05.09-.1.18-.15.27-.04-.05-.13-.11-.12-.14.02-.1.08-.19.13-.29.04.05.09.1.14.15Z"></path><path class="cls-6" d="m221.74,197.72c-.1.12-.2.24-.3.36-.02-.06-.08-.14-.07-.19.08-.23.22-.27.42-.11,0,0-.04-.06-.04-.06Z"></path><path class="cls-6" d="m251.23,261.97c.18-.04.48-.16.53-.1.18.25-.06.32-.25.38-.09-.09-.19-.19-.28-.28Z"></path></g><path class="cls-4" d="m71.04,298.47c-18.94-29.45-26.09-66.52-19.63-100.93-2.18,34.86,4.46,69.46,19.63,100.93h0Z"></path><path class="cls-4" d="m379.76,198.12c6.21,33.6-.58,69.75-18.78,98.68,14.4-30.91,20.76-64.65,18.78-98.68h0Z"></path><g><path class="cls-3" d="m100.53,307.16l12.28,14.01-4.25,3.73-8.02-9.16-2.98,2.61,7.26,8.28-4.03,3.53-7.26-8.28-6.26,5.48-4.25-4.85,17.52-15.35Z"></path><path class="cls-3" d="m105.44,330.57l.04-.05c4.27-5.14,11.89-5.87,17.41-1.28,5.53,4.59,6.2,12.11,1.92,17.26l-.04.05c-4.27,5.14-11.88,5.87-17.41,1.28-5.53-4.59-6.2-12.11-1.92-17.26Zm14.23,11.82l.04-.05c2.15-2.58,2.15-6.39-.59-8.66-2.71-2.25-6.36-1.56-8.51,1.02l-.04.05c-2.15,2.58-2.15,6.39.56,8.64,2.74,2.28,6.38,1.58,8.53-1Z"></path><path class="cls-3" d="m126.89,348.09l.03-.06c3.32-5.81,10.69-7.84,16.93-4.28,6.24,3.56,8.21,10.86,4.89,16.66l-.03.06c-3.32,5.81-10.69,7.84-16.93,4.28-6.24-3.56-8.21-10.86-4.89-16.66Zm16.07,9.18l.03-.06c1.67-2.92,1.01-6.67-2.08-8.43-3.06-1.75-6.53-.44-8.2,2.48l-.03.06c-1.67,2.92-1.01,6.67,2.05,8.41,3.09,1.77,6.56.45,8.23-2.46Z"></path><path class="cls-3" d="m158.45,357.72l-6.52-2.51,2.04-5.28,19.06,7.35-2.04,5.28-6.52-2.51-6.34,16.45-6.02-2.32,6.35-16.45Z"></path><path class="cls-3" d="m174.14,357.59l11.65,2.62c2.86.64,4.71,1.81,5.74,3.44.7,1.11.99,2.44.63,4v.06c-.61,2.63-2.45,3.85-4.66,4.28,2.55,1.53,3.96,3.48,3.26,6.57l-.02.07c-.88,3.89-4.59,5.55-10.01,4.33l-11.72-2.64,5.11-22.72Zm7.03,20.13c1.91.43,3.19-.07,3.49-1.4v-.07c.29-1.23-.5-2.26-2.61-2.74l-4.8-1.08-.94,4.19,4.87,1.1Zm1.03-8.81c1.92.43,3.13.02,3.43-1.31v-.07c.29-1.23-.52-2.17-2.41-2.59l-4.09-.92-.9,3.99,3.96.89Z"></path><path class="cls-3" d="m203.61,362.64l6.21.37,8.49,24-6.91-.42-1.45-4.25-8.97-.54-1.91,4.05-6.77-.41,11.3-22.82Zm4.79,14.58l-2.19-6.76-3.02,6.45,5.21.31Z"></path><path class="cls-3" d="m220.26,363.4l6.43-.58,1.57,17.56,11.23-1.01.51,5.63-17.66,1.58-2.08-23.2Z"></path><path class="cls-3" d="m239.19,361.53l6.3-1.4,3.84,17.21,11.01-2.45,1.23,5.52-17.31,3.86-5.07-22.73Z"></path><path class="cls-3" d="m269.73,365.71l-.03-.06c-2.76-6.2-.16-13.18,6.27-16.06,4.34-1.94,7.95-1.36,11,.41l-2.9,5.41c-1.89-.98-3.72-1.33-5.76-.42-2.98,1.33-3.95,4.78-2.57,7.88l.03.06c1.42,3.19,4.63,4.74,7.61,3.42,2.22-.99,3.06-2.6,3.65-4.72l5.85,1.18c-.77,3.66-2.57,6.9-7.28,9-6.07,2.71-13.04.25-15.87-6.1Z"></path><path class="cls-3" d="m286.24,345.18l5.46-3.44,9.4,14.92,9.54-6.01,3.01,4.79-15,9.45-12.42-19.7Z"></path><path class="cls-3" d="m309.91,345.65l-8.47-9.96,4.99-4.25,8.39,9.85c2.18,2.56,4.5,2.68,6.48.99,1.98-1.68,2.28-3.95.17-6.43l-8.49-9.98,4.99-4.25,8.37,9.83c4.87,5.73,3.74,11.01-1.3,15.31-5.04,4.29-10.39,4.42-15.11-1.12Z"></path><path class="cls-3" d="m319.35,320.13l7.77-9.07c1.91-2.22,3.81-3.31,5.73-3.46,1.31-.1,2.62.27,3.83,1.31l.05.04c2.05,1.75,2.26,3.96,1.6,6.11,2.55-1.54,4.93-1.87,7.33.19l.05.04c3.03,2.6,2.75,6.66-.86,10.87l-7.82,9.12-17.68-15.16Zm13.78-1.81c1.28-1.49,1.49-2.76.45-3.65l-.05-.04c-.96-.82-2.17-.54-3.42.92l-2.73,3.18,3.11,2.66,2.64-3.08Zm7.3,5.03c1.28-1.49,1.43-2.85.4-3.74l-.05-.04c-.96-.82-2.24-.61-3.65,1.04l-3.21,3.74,3.26,2.79,3.25-3.79Z"></path></g><circle class="cls-1" cx="217.52" cy="217.52" r="213.52"></circle><g><path class="cls-3" d="m110.91,150.51l-60.68-20.58-5.69,16.55c-.12.36-.27,1.02-.43,1.99-.16.98-.1,2.23.17,3.75.28,1.53.88,3.29,1.82,5.29.94,2.01,2.44,4.25,4.5,6.73l40.23,47.78,2.69-22.15-35.45-39.86,44.64,15.37c2.4-5.15,5.16-10.12,8.21-14.87Z"></path><path class="cls-3" d="m104.37,86.16l10.53-8.54s-2.41-6.8-5.21-13.41c-8.85,5.65-23.87,20.57-23.87,20.57h0c-3.25,3.4-5.61,6.56-7.1,9.5-1.48,2.93-2.35,5.86-2.58,8.77-.25,2.92,0,5.91.76,8.97.75,3.06,1.77,6.42,3.04,10.03.2.34.48.4.84.18.35-.22.5-.55.45-.96-.2-1.36-.3-2.72-.31-4.06,0-1.33.31-2.82.97-4.47.64-1.65,1.76-3.53,3.33-5.65,1.57-2.12,3.83-4.68,6.79-7.68l26.57,40.95c3.73-4.89,7.8-9.5,12.19-13.8l-26.38-40.41Z"></path><path class="cls-3" d="m181.55,82.74c-1.61-6.28-3.65-12.44-6.1-18.47-2.46-6.04-5.28-12.04-8.47-18.01l-1.4-1.98c-2.44-2.35-4.94-3.84-7.53-4.44-2.58-.62-5.14-.74-7.66-.37-2.51.36-4.96,1.05-7.33,2.07-2.37,1.02-4.53,1.99-6.5,2.93-3.97,1.92-7.14,3.89-9.48,5.9-2.35,2.02-4.09,3.99-5.2,5.93-1.11,1.94-1.74,3.81-1.89,5.58-.17,1.77-.03,3.38.38,4.81.73,2.66,1.57,5.47,2.53,8.44.96,2.96,2,5.96,3.16,9.01,1.16,3.03,2.41,6.04,3.76,9.02,1.36,2.97,2.81,5.78,4.37,8.42,1.37,2.28,2.85,4.07,4.45,5.35,1.6,1.29,3.28,2.21,5.04,2.76,1.77.56,3.57.79,5.41.73,1.83-.08,3.67-.33,5.5-.8,1.35-.34,2.68-.75,3.97-1.24,0,0,.03,0,.04-.01.43-.16.86-.34,1.28-.52,1.7-.72,3.32-1.45,4.83-2.19.81-.39,1.61-.8,2.39-1.21,1.26-.67,2.48-1.37,3.66-2.1,1.94-1.19,3.81-2.49,5.65-3.9,2.23-1.73,3.86-3.98,4.83-6.74.99-2.77,1.09-5.76.32-8.97Zm-24.53,12.03c-.82.53-1.7.85-2.63.98-.94.12-1.83.05-2.68-.23-.86-.28-1.64-.75-2.39-1.41-.73-.65-1.32-1.52-1.79-2.61-2.12-4.53-4.02-9.1-5.71-13.7-1.69-4.61-3.2-9.13-4.55-13.59-.34-1.07-.37-2.05-.09-2.94s.71-1.68,1.32-2.39c.6-.72,1.31-1.34,2.14-1.86.82-.53,1.62-.98,2.38-1.35.66-.33,1.5-.66,2.51-1.01,1-.36,2-.57,3.01-.63,1.01-.05,1.96.14,2.87.58s1.65,1.28,2.22,2.51c2.22,4.6,4.17,9.23,5.83,13.88,1.67,4.66,3.15,9.38,4.43,14.18.57,1.23.69,2.35.39,3.34-.32,1-.88,1.89-1.67,2.67-.8.77-1.72,1.46-2.76,2.07-1.05.6-1.98,1.11-2.83,1.51Z"></path><path class="cls-3" d="m249.22,32.77c-2.16-.13-4.18.23-6.05,1.09-1.87.86-3.36,2.1-4.48,3.71l-9.24,13.64-5.28-13.81c-.39-.97-.96-1.85-1.67-2.63-.73-.78-1.56-1.48-2.48-2.08-.94-.61-1.94-1.09-2.99-1.45-1.05-.36-2.08-.56-3.08-.62l-18.63-1.15-6.17,67.23c6.03-1.42,12.25-2.38,18.6-2.89l3.66-45.45,10.93,28.75,4.07.25,18.65-26.23-3.51,44.63c6.29,1.24,12.43,2.96,18.36,5.12l6.02-67.1-16.72-1.02Z"></path><path class="cls-3" d="m299.82,46.42l-36.76,55.45c6.23,2.31,12.23,5.1,17.96,8.33l35.89-54.14-17.1-9.64Z"></path><path class="cls-3" d="m348.18,81.7c-2.23-2.04-4.68-3.36-7.35-3.97-2.67-.61-5.43-.72-8.33-.32-2.88.4-7.28,2.42-10.2,3.63-2.93,1.19-5.77,2.57-8.54,4.1-2.76,1.54-5.36,3.15-7.81,4.88-2.45,1.71-4.6,3.26-6.45,4.64-1.67,1.26-3.23,2.79-4.68,4.61-1.45,1.83-2.55,3.75-3.29,5.77-.76,2.02-1.02,4.09-.79,6.2.22,2.11,1.18,4.12,2.87,6.04,7.49,8.53,15.96,15.96,25.41,22.26l13.28-8.15c-3.85-2.36-7.44-5.05-10.79-8.07-3.34-3.03-6.47-6.31-9.38-9.85-.5-.66-.74-1.41-.76-2.23-.02-.82.26-1.47.86-1.96,3.42-3.01,7.11-5.65,11.08-7.91,3.98-2.26,9.62-5.31,13.95-6.68.76-.27,1.54-.33,2.37-.19s1.54.48,2.14,1.02l17.63,18.92,13.02-7.74-24.26-24.99Z"></path><path class="cls-3" d="m391.38,151.29c-1.8-4.33-3.77-7.77-5.91-10.33-2.13-2.55-4.48-4.53-7.06-5.95-2.59-1.41-5.45-2.42-8.57-3.01-3.14-.59-6.62-1.03-10.45-1.32-.34.03-.51.22-.51.57,0,.35.14.62.39.8.04.1.16.19.38.27,1.27.35,2.49.92,3.7,1.71,1.2.81,2.38,1.79,3.52,2.94-1.66.13-3.19.45-4.61.98-1.43.52-2.71,1.16-3.85,1.92-1.14.76-2.17,1.57-3.09,2.43-.93.87-1.75,1.7-2.47,2.48-.69.71-1.11,1.66-1.25,2.83-.14,1.17-.13,2.47.05,3.9.17,1.43.5,2.94.98,4.53.47,1.58.99,3.13,1.55,4.62.55,1.5,1.11,2.88,1.67,4.18.55,1.29,1.04,2.36,1.48,3.23-.1,1.28-.33,2.19-.69,2.72-.36.54-1.26.88-2.72,1.05-1.19.1-2.25-.24-3.17-1.02-.93-.78-1.76-1.79-2.51-3.07-.75-1.26-1.45-2.63-2.09-4.13-.64-1.48-1.26-2.9-1.83-4.23l-7.6-17.64-14.39,2.42,8.79,20.38c1.93,4.47,3.66,8.05,5.2,10.73,1.54,2.69,3.1,4.72,4.7,6.09,2.55,2.25,5.47,3.66,8.73,4.21,3.28.56,6.63.69,10.08.38,2.75-.18,5.2-.81,7.36-1.85,2.16-1.06,3.69-2.33,4.57-3.82,1.17-1.92,1.59-4.22,1.26-6.9-.33-2.68-1.45-6.23-3.35-10.65-.45-1.04-.84-1.93-1.16-2.67s-.59-1.4-.79-1.95c-.21-.55-.37-1.05-.46-1.48-.1-.43-.13-.89-.11-1.37.04-1.13.4-2.04,1.08-2.72.67-.67,1.75-1.01,3.23-.99,1.36,0,2.55.53,3.59,1.59,1.05,1.05,2.03,2.4,2.99,4.05l10.3,23.87,14.77-2.58-11.74-27.22Z"></path></g><polygon class="cls-3" points="93.73 190.02 62.55 107.97 61.27 111.59 88.83 208.41 93.73 190.02"></polygon></g></g></svg>